<?xml version="1.0" encoding="utf-8"?>
<!-- Generator: Adobe Illustrator 16.0.0, SVG Export Plug-In . SVG Version: 6.00 Build 0)  -->
<!DOCTYPE svg PUBLIC "-//W3C//DTD SVG 1.1//EN" "http://www.w3.org/Graphics/SVG/1.1/DTD/svg11.dtd">
<svg version="1.1" id="Layer_1" xmlns="http://www.w3.org/2000/svg" xmlns:xlink="http://www.w3.org/1999/xlink" x="0px" y="0px"
	 width="98.208px" height="49.35px" viewBox="0 0 98.208 49.35" enable-background="new 0 0 98.208 49.35" xml:space="preserve">
<g id="base">
	<path fill="#FFFFFF" d="M9.917,37.878c-2.194,0-5.356-0.858-7.03-2.242H2.656L0.52,37.352H0.289L0,28.384h0.404
		c0.867,4.871,5.356,8.984,9.514,8.984c2.714,0,3.536-0.957,3.536-3.614c0-2.271-2.425-3.6-5.832-4.928
		C4.446,27.608,0,25.394,0,20.246c0-4.374,3.811-7.584,9.354-7.584c2.021,0,5.081,0.94,6.121,2.104h0.173l1.444-1.55h0.289
		l0.173,7.197h-0.347c-0.462-1.993-1.443-3.82-2.887-5.094c-1.385-1.272-3.118-1.992-4.908-1.992c-2.021,0-3.464,0.94-3.464,3.21
		c0,2.381,2.31,3.599,5.601,4.816c4.273,1.55,7.911,3.488,7.911,8.304C19.458,34.75,15.056,37.878,9.917,37.878z"/>
	<path fill="#FFFFFF" d="M37.864,33.784c-0.7,1.671-3.337,4.094-7.187,4.094c-2.625,0-4.712-0.585-5.938-1.699
		c-1.575-1.393-2.002-3.121-2.002-5.294c0-1.113,0.087-14.097,0.146-16.826c-0.992-0.11-2.566-0.062-3.351-0.146l0.017-0.513
		c5.366-1.059,9.041-4.511,10.732-10.191h0.933l-0.02,9.762l5.444-0.005v1.159l-5.452,0.007L30.969,31.76
		c0,2.005,0.479,3.807,3.046,3.807c1.516,0,2.858-0.725,3.616-1.948L37.864,33.784z"/>
	<path fill="#FFFFFF" d="M58.43,37.806v-0.219c0.402-0.055,0.893-0.022,1.354-0.188c0.748-0.332,1.268-0.664,1.67-2.048
		c0.23-0.886,0.287-3.155,0.287-4.761V6.678c0-0.996-0.057-3.21-0.172-4.096C61.396,1.53,61.108,1.087,60.532,0.7
		c-0.46-0.333-1.703-0.481-2.318-0.481V0h11.363c0.229,0,0.342,0.091,0.342,0.367c0,0.831-0.059,1.992-0.059,3.432V30.59
		c0,1.604,0,3.875,0.288,4.761c0.347,1.384,0.864,1.716,1.671,2.048c0.46,0.166,0.996,0.135,1.398,0.188v0.219H58.43L58.43,37.806z"
		/>
	<path fill="#FFFFFF" d="M91.939,37.878c-2.088,0-3.476-0.415-4.288-1.244c-0.579-0.554-0.928-1.494-0.984-2.655h-0.117
		c-0.754,2.82-3.498,3.899-6.922,3.899c-3.362,0-6.592-1.854-6.592-6.333c0-1.825,0.521-2.767,1.508-3.816
		c1.451-1.604,4.523-2.046,6.266-2.599c4.697-1.217,5.667-2.961,5.667-4.952c0-1.162,0-2.812,0-3.643c0-2.6-0.563-3.132-2.769-3.132
		c-1.508,0-2.029,0.443-2.262,0.94c-0.174,0.608-0.059,1.991-0.059,3.484c0,2.268-1.102,3.317-3.422,3.317
		c-2.03,0-3.422-0.995-3.422-2.985c0-0.94,0.406-1.771,0.928-2.434c1.449-1.825,5.178-2.979,8.6-2.979
		c6.439,0,10.418,2.015,10.418,6.993v12.02c0,2.622,0.123,3.601,0.645,4.099c0.291,0.389,0.755,0.608,1.451,0.608
		c0.521,0,1.16-0.165,1.623-0.441v0.276C97.627,36.91,95.129,37.878,91.939,37.878z M84.17,24.576
		c-1.102,0.664-1.623,1.271-2.146,2.322c-0.464,0.996-0.638,2.932-0.638,4.701c0,3.097,0.869,4.313,2.494,4.313
		c1.102,0,2.521-1.81,2.521-4.52V22.8C85.708,23.74,84.983,24.079,84.17,24.576z"/>
</g>
<g id="y_basic">
	<path fill="#FFFFFF" d="M57.489,15.311c-0.463,0.728-0.926,1.732-1.734,3.912c-2.023,5.366-8.271,21.017-9.08,23.139
		c-0.81,2.068-1.851,3.745-3.007,5.031c-1.33,1.396-2.95,1.956-4.742,1.956c-2.776,0-4.969-1.533-4.969-4.552
		c0-1.621,1.065-2.986,3.205-2.986c1.851,0,2.921,0.998,3.615,2.676c0.521,1.229,0.486,2.061,1.411,2.061
		c0.926,0,2.259-1.457,3.562-4.521c0.409-0.96,0.809-2.108,0.809-2.108c0.058-0.225,0.175-0.909-0.057-1.468l-7.287-17.941
		c-0.925-2.459-1.735-3.912-2.198-4.695c-0.578-1.006-1.312-1.683-1.968-1.683c-0.587,0-1.301-0.898-1.821-0.954v-0.211H49.18v0.211
		c-0.52,0.056-1.233,0.177-1.696,0.457c-0.578,0.336-0.868,1.062-0.868,1.789c0,1.006,0.405,1.9,1.041,3.855l3.355,9.726h0.058
		l3.527-9.445c0.752-1.899,0.925-3.074,0.925-4.191c0-0.895-0.462-1.453-1.04-1.789c-0.521-0.28-1.157-0.335-1.678-0.393v-0.224
		h8.097v0.224C59.34,13.354,58.125,14.249,57.489,15.311z"/>
</g>
</svg>
